# xmcd
#
# Track frame offsets:
#	150
#	15844
#	36308
#	51814
#	65822
#	79220
#	96934
#	113105
#	127049
#	143267
#	154594
#	168451
#	182177
#	196968
#	215808
#	231434
#	247097
#	263238
#	279607
#	295668
#	312001
#	327301
#	342079
#
# Disc length: 4741 seconds
#
# Revision: 1
# Processed by: cddbd v1.5.2PL0 Copyright (c) Steve Scherf et al.
# Submitted via: audiograbber 1.83.01
#
DISCID=57128317
DTITLE=Various Artist - So Country 2018 [Disc 2]
DYEAR=2018
DGENRE=Country
TTITLE0=Maren Morris - Rich
TTITLE1=Travis Collins and Amber Lawrence - Our Backyard
TTITLE2=Jon Pardi - Heartache On The Dance Floor
TTITLE3=Missy Lancaster - Forget
TTITLE4=Kane Brown - Heaven
TTITLE5=Billy Currington - Do I Make You Wanna
TTITLE6=Josh Turner - Hometown Girl
TTITLE7=Old Dominion - Written In The Sand
TTITLE8=Russell Dickerson - Yours
TTITLE9=Dylan Scott - Hooked
TTITLE10=Canaan Smith - This Night Back
TTITLE11=Jordan Davis - Singles You Up
TTITLE12=Melanie Dyer - Save My Cents
TTITLE13=Wynonna Featuring Derek Trucks - Keeps Me Alive
TTITLE14=Davisson Brothers Band - PO' Boyz
TTITLE15=Jerrod Niemann - God Made A Woman
TTITLE16=Trent Harmon - There's A Girl
TTITLE17=Dan Tyminski - Bloodline
TTITLE18=Ward Thomas - Carry You Home
TTITLE19=Easton Corbin - A Girl Like You
TTITLE20=Imogen Clark - Collide
TTITLE21=Tim Wheatley - Her Wicked Ways
TTITLE22=Mae Valley - Turns Out
EXTD=
EXTT0=
EXTT1=
EXTT2=
EXTT3=
EXTT4=
EXTT5=
EXTT6=
EXTT7=
EXTT8=
EXTT9=
EXTT10=
EXTT11=
EXTT12=
EXTT13=
EXTT14=
EXTT15=
EXTT16=
EXTT17=
EXTT18=
EXTT19=
EXTT20=
EXTT21=
EXTT22=
PLAYORDER=
